BodoniModa-96ptItalic.ufo
<glyph name="one" format="2">
  <advance width="869"/>
  <unicode hex="0031"/>
  <outline>
    <contour>
      <point x="140" y="0" type="line"/>
      <point x="330" y="0" type="line"/>
      <point x="670" y="1500" type="line"/>
      <point x="244" y="1500" type="line"/>
      <point x="244" y="1496" type="line"/>
      <point x="478" y="1496" type="line"/>
    </contour>
    <contour>
      <point x="-80" y="0" type="line"/>
      <point x="550" y="0" type="line"/>
      <point x="550" y="4" type="line"/>
      <point x="-80" y="4" type="line"/>
    </contour>
  </outline>
</glyph>
<glyph name="four" format="2">
  <advance width="1189"/>
  <unicode hex="0034"/>
  <outline>
    <contour>
      <point x="660" y="0" type="line"/>
      <point x="850" y="0" type="line"/>
      <point x="1170" y="1500" type="line"/>
      <point x="990" y="1500" type="line"/>
      <point x="70" y="428" type="line"/>
      <point x="1170" y="428" type="line"/>
      <point x="1170" y="432" type="line"/>
      <point x="78" y="432" type="line"/>
      <point x="970" y="1472" type="line"/>
    </contour>
    <contour>
      <point x="490" y="0" type="line"/>
      <point x="1020" y="0" type="line"/>
      <point x="1020" y="4" type="line"/>
      <point x="490" y="4" type="line"/>
    </contour>
  </outline>
</glyph>
<glyph name="M" format="2">
  <advance width="1669"/>
  <unicode hex="004D"/>
  <anchor x="721" y="0" name="bottom"/>
  <anchor x="997" y="1500" name="top"/>
  <outline>
    <contour>
      <point x="642" y="-20" type="line"/>
      <point x="646" y="-20" type="line"/>
      <point x="1502" y="1500" type="line"/>
      <point x="1498" y="1500" type="line"/>
      <point x="800" y="260" type="line"/>
      <point x="598" y="1500" type="line"/>
      <point x="406" y="1500" type="line"/>
    </contour>
    <contour>
      <point x="-50" y="0" type="line"/>
      <point x="254" y="0" type="line"/>
      <point x="254" y="4" type="line"/>
      <point x="-50" y="4" type="line"/>
    </contour>
    <contour>
      <point x="92" y="0" type="line"/>
      <point x="96" y="0" type="line"/>
      <point x="410" y="1500" type="line"/>
      <point x="250" y="1500" type="line"/>
      <point x="250" y="1496" type="line"/>
      <point x="404" y="1496" type="line"/>
    </contour>
    <contour>
      <point x="1040" y="0" type="line"/>
      <point x="1530" y="0" type="line"/>
      <point x="1530" y="4" type="line"/>
      <point x="1040" y="4" type="line"/>
    </contour>
    <contour>
      <point x="1180" y="0" type="line"/>
      <point x="1370" y="0" type="line"/>
      <point x="1682" y="1496" type="line"/>
      <point x="1810" y="1496" type="line"/>
      <point x="1810" y="1500" type="line"/>
      <point x="1500" y="1500" type="line"/>
    </contour>
  </outline>
</glyph>
<glyph name="bracketleft" format="2">
  <advance width="669"/>
  <unicode hex="005B"/>
  <outline>
    <contour>
      <point x="-20" y="-300" type="line"/>
      <point x="460" y="-300" type="line"/>
      <point x="460" y="-296" type="line"/>
      <point x="162" y="-296" type="line"/>
      <point x="578" y="1556" type="line"/>
      <point x="880" y="1556" type="line"/>
      <point x="880" y="1560" type="line"/>
      <point x="400" y="1560" type="line"/>
    </contour>
  </outline>
</glyph>
<glyph name="b" format="2">
  <advance width="980"/>
  <unicode hex="0062"/>
  <anchor x="365" y="0" name="bottom"/>
  <anchor x="625" y="920" name="top"/>
  <outline>
    <contour>
      <point x="351" y="-20" type="curve" smooth="yes"/>
      <point x="649" y="-20"/>
      <point x="905" y="263"/>
      <point x="905" y="575" type="curve" smooth="yes"/>
      <point x="905" y="791"/>
      <point x="790" y="938"/>
      <point x="626" y="938" type="curve" smooth="yes"/>
      <point x="454" y="938"/>
      <point x="350" y="754"/>
      <point x="272" y="460" type="curve"/>
      <point x="276" y="460" type="line"/>
      <point x="339" y="689"/>
      <point x="435" y="927"/>
      <point x="607" y="927" type="curve" smooth="yes"/>
      <point x="699" y="927"/>
      <point x="747" y="822"/>
      <point x="747" y="674" type="curve" smooth="yes"/>
      <point x="747" y="396"/>
      <point x="576" y="-16"/>
      <point x="345" y="-16" type="curve" smooth="yes"/>
      <point x="225" y="-16"/>
      <point x="204" y="61"/>
      <point x="204" y="189" type="curve"/>
      <point x="557" y="1500" type="line"/>
      <point x="230" y="1500" type="line"/>
      <point x="230" y="1496" type="line"/>
      <point x="398" y="1496" type="line"/>
      <point x="60" y="240" type="line"/>
      <point x="100" y="114"/>
      <point x="189" y="-20"/>
    </contour>
  </outline>
</glyph>
<glyph name="c" format="2">
  <advance width="875"/>
  <unicode hex="0063"/>
  <anchor x="385" y="0" name="bottom"/>
  <anchor x="585" y="920" name="top"/>
  <outline>
    <contour>
      <point x="357" y="-20" type="curve" smooth="yes"/>
      <point x="549" y="-20"/>
      <point x="690" y="108"/>
      <point x="769" y="259" type="curve"/>
      <point x="766" y="260" type="line"/>
      <point x="686" y="112"/>
      <point x="547" y="-13"/>
      <point x="371" y="-13" type="curve" smooth="yes"/>
      <point x="258" y="-13"/>
      <point x="209" y="84"/>
      <point x="209" y="213" type="curve" smooth="yes"/>
      <point x="209" y="471"/>
      <point x="378" y="934"/>
      <point x="606" y="934" type="curve" smooth="yes"/>
      <point x="755" y="934"/>
      <point x="851" y="827"/>
      <point x="851" y="750" type="curve"/>
      <point x="853" y="750" type="line"/>
      <point x="853" y="820"/>
      <point x="804" y="836"/>
      <point x="747" y="836" type="curve" smooth="yes"/>
      <point x="696" y="836"/>
      <point x="653" y="791"/>
      <point x="653" y="736" type="curve" smooth="yes"/>
      <point x="653" y="666"/>
      <point x="702" y="636"/>
      <point x="752" y="636" type="curve" smooth="yes"/>
      <point x="810" y="636"/>
      <point x="855" y="679"/>
      <point x="855" y="750" type="curve" smooth="yes"/>
      <point x="855" y="828"/>
      <point x="757" y="940"/>
      <point x="593" y="940" type="curve" smooth="yes"/>
      <point x="311" y="940"/>
      <point x="60" y="610"/>
      <point x="60" y="300" type="curve" smooth="yes"/>
      <point x="60" y="110"/>
      <point x="165" y="-20"/>
    </contour>
  </outline>
</glyph>
<glyph name="d" format="2">
  <advance width="1087"/>
  <unicode hex="0064"/>
  <anchor x="496" y="0" name="bottom"/>
  <anchor x="717" y="0" name="cedilla"/>
  <anchor x="544" y="460" name="center"/>
  <anchor x="506" y="920" name="top"/>
  <anchor x="1123" y="920" name="topright"/>
  <outline>
    <contour>
      <point x="748" y="-20" type="curve" smooth="yes"/>
      <point x="882" y="-20"/>
      <point x="961" y="76"/>
      <point x="1047" y="306" type="curve"/>
      <point x="1044" y="307" type="line"/>
      <point x="959" y="80"/>
      <point x="878" y="-13"/>
      <point x="763" y="-13" type="curve" smooth="yes"/>
      <point x="732" y="-13"/>
      <point x="722" y="8"/>
      <point x="722" y="29" type="curve" smooth="yes"/>
      <point x="722" y="38"/>
      <point x="722.816" y="49.049"/>
      <point x="726" y="61" type="curve" smooth="yes"/>
      <point x="1110" y="1500" type="line"/>
      <point x="774" y="1500" type="line"/>
      <point x="774" y="1496" type="line"/>
      <point x="949" y="1496" type="line"/>
      <point x="704" y="584" type="line"/>
      <point x="689" y="465" type="line"/>
      <point x="639" y="297" type="line"/>
      <point x="616" y="170" type="line" smooth="yes"/>
      <point x="612.218" y="149.142"/>
      <point x="612" y="126"/>
      <point x="612" y="116" type="curve" smooth="yes"/>
      <point x="612" y="36"/>
      <point x="654" y="-20"/>
    </contour>
    <contour>
      <point x="314" y="-20" type="curve" smooth="yes"/>
      <point x="556" y="-20"/>
      <point x="710" y="382"/>
      <point x="710" y="648" type="curve" smooth="yes"/>
      <point x="710" y="802"/>
      <point x="687" y="940"/>
      <point x="547" y="940" type="curve" smooth="yes"/>
      <point x="311" y="940"/>
      <point x="60" y="611"/>
      <point x="60" y="305" type="curve" smooth="yes"/>
      <point x="60" y="100"/>
      <point x="135" y="-20"/>
    </contour>
    <contour>
      <point x="348" y="-2" type="curve" smooth="yes"/>
      <point x="265" y="-2"/>
      <point x="212" y="73"/>
      <point x="212" y="235" type="curve" smooth="yes"/>
      <point x="212" y="493"/>
      <point x="393" y="930"/>
      <point x="566" y="930" type="curve" smooth="yes"/>
      <point x="678" y="930"/>
      <point x="706" y="804"/>
      <point x="706" y="648" type="curve" smooth="yes"/>
      <point x="706" y="385"/>
      <point x="548" y="-2"/>
    </contour>
  </outline>
</glyph>
<glyph name="g" format="2">
  <advance width="1170"/>
  <unicode hex="0067"/>
  <anchor x="275" y="-500" name="bottom"/>
  <anchor x="648" y="932" name="top"/>
  <outline>
    <contour>
      <point x="300" y="-520" type="curve" smooth="yes"/>
      <point x="579" y="-520"/>
      <point x="901" y="-376"/>
      <point x="901" y="-84" type="curve" smooth="yes"/>
      <point x="901" y="78"/>
      <point x="786" y="126"/>
      <point x="636" y="126" type="curve" smooth="yes"/>
      <point x="579" y="126"/>
      <point x="444" y="124"/>
      <point x="374" y="124" type="curve" smooth="yes"/>
      <point x="285" y="124"/>
      <point x="174" y="146"/>
      <point x="174" y="241" type="curve" smooth="yes"/>
      <point x="174" y="309"/>
      <point x="234" y="386"/>
      <point x="370" y="386" type="curve"/>
      <point x="370" y="387" type="line"/>
      <point x="170" y="387"/>
      <point x="26" y="300"/>
      <point x="26" y="173" type="curve" smooth="yes"/>
      <point x="26" y="59"/>
      <point x="133" y="-18"/>
      <point x="313" y="-18" type="curve" smooth="yes"/>
      <point x="357" y="-18"/>
      <point x="663" y="-18"/>
      <point x="725" y="-18" type="curve" smooth="yes"/>
      <point x="824" y="-18"/>
      <point x="885" y="-47"/>
      <point x="885" y="-125" type="curve" smooth="yes"/>
      <point x="885" y="-325"/>
      <point x="651" y="-515"/>
      <point x="282" y="-515" type="curve" smooth="yes"/>
      <point x="115" y="-515"/>
      <point x="49" y="-420"/>
      <point x="49" y="-274" type="curve" smooth="yes"/>
      <point x="49" y="-110"/>
      <point x="131" y="16"/>
      <point x="245" y="16" type="curve"/>
      <point x="238" y="16" type="line" smooth="yes"/>
      <point x="137" y="16"/>
      <point x="-90" y="-109"/>
      <point x="-90" y="-271" type="curve" smooth="yes"/>
      <point x="-90" y="-401"/>
      <point x="3" y="-520"/>
    </contour>
    <contour>
      <point x="518" y="320" type="curve" smooth="yes"/>
      <point x="721" y="320"/>
      <point x="901" y="466"/>
      <point x="901" y="657" type="curve" smooth="yes"/>
      <point x="901" y="827"/>
      <point x="780" y="939"/>
      <point x="618" y="939" type="curve" smooth="yes"/>
      <point x="415" y="939"/>
      <point x="235" y="784"/>
      <point x="235" y="593" type="curve" smooth="yes"/>
      <point x="235" y="423"/>
      <point x="356" y="320"/>
    </contour>
    <contour>
      <point x="488" y="326" type="curve" smooth="yes"/>
      <point x="400" y="326"/>
      <point x="360" y="395"/>
      <point x="360" y="483" type="curve" smooth="yes"/>
      <point x="360" y="651"/>
      <point x="510" y="932"/>
      <point x="648" y="932" type="curve" smooth="yes"/>
      <point x="736" y="932"/>
      <point x="776" y="865"/>
      <point x="776" y="777" type="curve" smooth="yes"/>
      <point x="776" y="609"/>
      <point x="626" y="326"/>
    </contour>
    <contour>
      <point x="1013" y="930" type="curve" smooth="yes"/>
      <point x="913" y="930"/>
      <point x="849" y="857"/>
      <point x="779" y="709" type="curve"/>
      <point x="782" y="707" type="line"/>
      <point x="858" y="859"/>
      <point x="918" y="926"/>
      <point x="1013" y="926" type="curve" smooth="yes"/>
      <point x="1073" y="926"/>
      <point x="1123" y="892"/>
      <point x="1134" y="827" type="curve"/>
      <point x="1122" y="864"/>
      <point x="1085" y="883"/>
      <point x="1045" y="883" type="curve" smooth="yes"/>
      <point x="997" y="883"/>
      <point x="953" y="850"/>
      <point x="953" y="788" type="curve" smooth="yes"/>
      <point x="953" y="732"/>
      <point x="998" y="699"/>
      <point x="1048" y="699" type="curve" smooth="yes"/>
      <point x="1103" y="699"/>
      <point x="1140" y="744"/>
      <point x="1140" y="799" type="curve" smooth="yes"/>
      <point x="1140" y="885"/>
      <point x="1081" y="930"/>
    </contour>
  </outline>
</glyph>
<glyph name="p" format="2">
  <advance width="1100"/>
  <unicode hex="0070"/>
  <anchor x="493" y="0" name="bottom"/>
  <anchor x="703" y="920" name="top"/>
  <outline>
    <contour>
      <point x="-49" y="-500" type="line"/>
      <point x="111" y="-500" type="line"/>
      <point x="335" y="343" type="line"/>
      <point x="347" y="426" type="line"/>
      <point x="385" y="578" type="line"/>
      <point x="465" y="920" type="line"/>
      <point x="187" y="920" type="line"/>
      <point x="187" y="916" type="line"/>
      <point x="331" y="916" type="line"/>
    </contour>
    <contour>
      <point x="-199" y="-500" type="line"/>
      <point x="280" y="-500" type="line"/>
      <point x="280" y="-496" type="line"/>
      <point x="-199" y="-496" type="line"/>
    </contour>
    <contour>
      <point x="474" y="-10" type="curve" smooth="yes"/>
      <point x="365" y="-10"/>
      <point x="335" y="116"/>
      <point x="335" y="272" type="curve" smooth="yes"/>
      <point x="335" y="535"/>
      <point x="493" y="922"/>
      <point x="693" y="922" type="curve" smooth="yes"/>
      <point x="780" y="922"/>
      <point x="828" y="838"/>
      <point x="828" y="695" type="curve" smooth="yes"/>
      <point x="828" y="425"/>
      <point x="647" y="-10"/>
    </contour>
    <contour>
      <point x="494" y="-20" type="curve" smooth="yes"/>
      <point x="730" y="-20"/>
      <point x="981" y="309"/>
      <point x="981" y="615" type="curve" smooth="yes"/>
      <point x="981" y="820"/>
      <point x="906" y="940"/>
      <point x="727" y="940" type="curve" smooth="yes"/>
      <point x="485" y="940"/>
      <point x="331" y="538"/>
      <point x="331" y="272" type="curve" smooth="yes"/>
      <point x="331" y="126"/>
      <point x="352" y="-20"/>
    </contour>
  </outline>
</glyph>
<glyph name="paragraph" format="2">
  <advance width="1212"/>
  <unicode hex="00B6"/>
  <outline>
    <contour>
      <point x="266" y="-300" type="line"/>
      <point x="847" y="-300" type="line"/>
      <point x="847" y="-296" type="line"/>
      <point x="639" y="-296" type="line"/>
      <point x="1052" y="1496" type="line"/>
      <point x="1252" y="1496" type="line"/>
      <point x="1252" y="1500" type="line"/>
      <point x="732" y="1500" type="line" smooth="yes"/>
      <point x="421" y="1500"/>
      <point x="169" y="1329"/>
      <point x="169" y="1049" type="curve" smooth="yes"/>
      <point x="169" y="873"/>
      <point x="335" y="779"/>
      <point x="566" y="779" type="curve" smooth="yes"/>
      <point x="725" y="779" type="line"/>
      <point x="477" y="-296" type="line"/>
      <point x="266" y="-296" type="line"/>
    </contour>
    <contour>
      <point x="481" y="-296" type="line"/>
      <point x="894" y="1496" type="line"/>
      <point x="1048" y="1496" type="line"/>
      <point x="635" y="-296" type="line"/>
    </contour>
  </outline>
</glyph>
<glyph name="dcroat" format="2">
  <advance width="1087"/>
  <unicode hex="0111"/>
  <outline>
    <contour>
      <point x="520.579" y="1138" type="line"/>
      <point x="1135.267" y="1138" type="line"/>
      <point x="1135.267" y="1142" type="line"/>
      <point x="520.579" y="1142" type="line"/>
    </contour>
    <component base="d"/>
  </outline>
</glyph>
<glyph name="hbar" format="2">
  <advance width="1106"/>
  <unicode hex="0127"/>
  <outline>
    <contour>
      <point x="111.969" y="1188" type="line"/>
      <point x="695.975" y="1188" type="line"/>
      <point x="695.975" y="1192" type="line"/>
      <point x="111.969" y="1192" type="line"/>
    </contour>
    <component base="h"/>
  </outline>
</glyph>
<glyph name="longs" format="2">
  <advance width="691"/>
  <unicode hex="017F"/>
  <outline>
    <contour>
      <point x="-174" y="-520" type="curve" smooth="yes"/>
      <point x="86" y="-520"/>
      <point x="201.478" y="-267.967"/>
      <point x="259" y="-23" type="curve" smooth="yes"/>
      <point x="518" y="1080" type="line" smooth="yes"/>
      <point x="574.186" y="1319.28"/>
      <point x="634" y="1516"/>
      <point x="775" y="1516" type="curve" smooth="yes"/>
      <point x="937" y="1516"/>
      <point x="998" y="1402"/>
      <point x="998" y="1322" type="curve"/>
      <point x="1000" y="1322" type="line"/>
      <point x="1000" y="1382"/>
      <point x="944" y="1408"/>
      <point x="897" y="1408" type="curve" smooth="yes"/>
      <point x="838" y="1408"/>
      <point x="794" y="1367"/>
      <point x="794" y="1307" type="curve" smooth="yes"/>
      <point x="794" y="1237"/>
      <point x="849" y="1208"/>
      <point x="899" y="1208" type="curve" smooth="yes"/>
      <point x="960" y="1208"/>
      <point x="1002" y="1250"/>
      <point x="1002" y="1322" type="curve" smooth="yes"/>
      <point x="1002" y="1406"/>
      <point x="937" y="1520"/>
      <point x="775" y="1520" type="curve" smooth="yes"/>
      <point x="515" y="1520"/>
      <point x="401.477" y="1269.68"/>
      <point x="344" y="1023" type="curve" smooth="yes"/>
      <point x="87" y="-80" type="line" smooth="yes"/>
      <point x="31.345" y="-318.863"/>
      <point x="-33" y="-516"/>
      <point x="-174" y="-516" type="curve" smooth="yes"/>
      <point x="-332" y="-516"/>
      <point x="-396" y="-406"/>
      <point x="-396" y="-322" type="curve"/>
      <point x="-398" y="-322" type="line"/>
      <point x="-398" y="-387"/>
      <point x="-346" y="-408"/>
      <point x="-302" y="-408" type="curve" smooth="yes"/>
      <point x="-243" y="-408"/>
      <point x="-194" y="-372"/>
      <point x="-194" y="-307" type="curve" smooth="yes"/>
      <point x="-194" y="-237"/>
      <point x="-246" y="-208"/>
      <point x="-296" y="-208" type="curve" smooth="yes"/>
      <point x="-357" y="-208"/>
      <point x="-400" y="-250"/>
      <point x="-400" y="-322" type="curve" smooth="yes"/>
      <point x="-400" y="-406"/>
      <point x="-336" y="-520"/>
    </contour>
  </outline>
</glyph>
<glyph name="tildecomb" format="2">
  <unicode hex="0303"/>
  <anchor x="712" y="1500" name="_top"/>
  <outline>
    <contour>
      <point x="963" y="1680" type="curve" smooth="yes"/>
      <point x="1061" y="1680"/>
      <point x="1151" y="1744"/>
      <point x="1191" y="1934" type="curve"/>
      <point x="1187" y="1934" type="line"/>
      <point x="1147" y="1830"/>
      <point x="1101" y="1796"/>
      <point x="1015" y="1796" type="curve" smooth="yes"/>
      <point x="903" y="1796"/>
      <point x="823" y="1954"/>
      <point x="683" y="1954" type="curve" smooth="yes"/>
      <point x="585" y="1954"/>
      <point x="475" y="1870"/>
      <point x="435" y="1700" type="curve"/>
      <point x="439" y="1700" type="line"/>
      <point x="479" y="1804"/>
      <point x="525" y="1838"/>
      <point x="611" y="1838" type="curve" smooth="yes"/>
      <point x="737" y="1838"/>
      <point x="809" y="1680"/>
    </contour>
  </outline>
</glyph>
<glyph name="cedillacomb" format="2">
  <unicode hex="0327"/>
  <anchor x="354" y="0" name="_bottom"/>
  <outline>
    <contour>
      <point x="143" y="-510" type="line"/>
      <point x="345" y="-510"/>
      <point x="509" y="-410"/>
      <point x="509" y="-290" type="curve" smooth="yes"/>
      <point x="509" y="-190"/>
      <point x="401" y="-148"/>
      <point x="239" y="-148" type="curve"/>
      <point x="399" y="12" type="line"/>
      <point x="395" y="12" type="line"/>
      <point x="155" y="-228" type="line"/>
      <point x="285" y="-228"/>
      <point x="359" y="-244"/>
      <point x="359" y="-330" type="curve" smooth="yes"/>
      <point x="359" y="-444"/>
      <point x="257" y="-506"/>
      <point x="143" y="-506" type="curve"/>
    </contour>
  </outline>
</glyph>
<glyph name="ogonekcomb" format="2">
  <unicode hex="0328"/>
  <anchor x="429" y="32" name="_ogonek"/>
  <outline>
    <contour>
      <point x="321" y="-422" type="curve" smooth="yes"/>
      <point x="463" y="-422"/>
      <point x="521" y="-332"/>
      <point x="551" y="-276" type="curve"/>
      <point x="547" y="-274" type="line"/>
      <point x="519" y="-326"/>
      <point x="467" y="-400"/>
      <point x="387" y="-400" type="curve" smooth="yes"/>
      <point x="339" y="-400"/>
      <point x="301" y="-354"/>
      <point x="301" y="-260" type="curve" smooth="yes"/>
      <point x="301" y="-94"/>
      <point x="403" y="-2"/>
      <point x="465" y="32" type="curve"/>
      <point x="463" y="36" type="line"/>
      <point x="341" y="-4"/>
      <point x="115" y="-110"/>
      <point x="115" y="-270" type="curve" smooth="yes"/>
      <point x="115" y="-390"/>
      <point x="219" y="-422"/>
    </contour>
  </outline>
</glyph>
<glyph name="pertenthousand" format="2">
  <advance width="3880"/>
  <unicode hex="2031"/>
  <outline>
    <contour>
      <point x="3340" y="-20" type="curve" smooth="yes"/>
      <point x="3606" y="-20"/>
      <point x="3820" y="234"/>
      <point x="3820" y="560" type="curve" smooth="yes"/>
      <point x="3820" y="766"/>
      <point x="3706" y="860"/>
      <point x="3520" y="860" type="curve" smooth="yes"/>
      <point x="3254" y="860"/>
      <point x="3040" y="606"/>
      <point x="3040" y="280" type="curve" smooth="yes"/>
      <point x="3040" y="74"/>
      <point x="3154" y="-20"/>
    </contour>
    <contour>
      <point x="3340" y="-16" type="curve" smooth="yes"/>
      <point x="3272" y="-16"/>
      <point x="3240" y="96"/>
      <point x="3240" y="240" type="curve" smooth="yes"/>
      <point x="3240" y="504"/>
      <point x="3372" y="856"/>
      <point x="3520" y="856" type="curve" smooth="yes"/>
      <point x="3588" y="856"/>
      <point x="3620" y="708"/>
      <point x="3620" y="564" type="curve" smooth="yes"/>
      <point x="3620" y="300"/>
      <point x="3488" y="-16"/>
    </contour>
    <component base="perthousand"/>
  </outline>
</glyph>
<glyph name="trademark" format="2">
  <advance width="1233"/>
  <unicode hex="2122"/>
  <outline>
    <contour>
      <point x="1001" y="968" type="line"/>
      <point x="1003" y="968" type="line"/>
      <point x="1309" y="1512" type="line"/>
      <point x="1195" y="976" type="line"/>
      <point x="1144" y="976" type="line"/>
      <point x="1144" y="975" type="line"/>
      <point x="1321" y="975" type="line"/>
      <point x="1321" y="976" type="line"/>
      <point x="1263" y="976" type="line"/>
      <point x="1376" y="1514" type="line"/>
      <point x="1422" y="1514" type="line"/>
      <point x="1422" y="1515" type="line"/>
      <point x="1309" y="1515" type="line"/>
      <point x="1058" y="1069" type="line"/>
      <point x="985" y="1515" type="line"/>
      <point x="860" y="1515" type="line"/>
      <point x="860" y="1514" type="line"/>
      <point x="915" y="1514" type="line"/>
      <point x="803" y="976" type="line"/>
      <point x="752" y="976" type="line"/>
      <point x="752" y="975" type="line"/>
      <point x="861" y="975" type="line"/>
      <point x="861" y="976" type="line"/>
      <point x="805" y="976" type="line"/>
      <point x="917" y="1510" type="line"/>
    </contour>
    <contour>
      <point x="331" y="975" type="line"/>
      <point x="558" y="975" type="line"/>
      <point x="558" y="976" type="line"/>
      <point x="479" y="976" type="line"/>
      <point x="604" y="1514" type="line"/>
      <point x="672" y="1514" type="line" smooth="yes"/>
      <point x="756" y="1514"/>
      <point x="766" y="1444"/>
      <point x="745" y="1353" type="curve"/>
      <point x="746" y="1353" type="line"/>
      <point x="784" y="1515" type="line"/>
      <point x="355" y="1515" type="line"/>
      <point x="318" y="1353" type="line"/>
      <point x="319" y="1353" type="line"/>
      <point x="340" y="1444"/>
      <point x="376" y="1514"/>
      <point x="460" y="1514" type="curve" smooth="yes"/>
      <point x="535" y="1514" type="line"/>
      <point x="410" y="976" type="line"/>
      <point x="331" y="976" type="line"/>
    </contour>
  </outline>
</glyph>
<glyph name="summation" format="2">
  <advance width="1305"/>
  <unicode hex="2211"/>
  <outline>
    <contour>
      <point x="-85" y="0" type="line"/>
      <point x="979" y="0" type="line"/>
      <point x="1083" y="450" type="line"/>
      <point x="1079" y="450" type="line"/>
      <point x="1020" y="196"/>
      <point x="856" y="4"/>
      <point x="583" y="4" type="curve" smooth="yes"/>
      <point x="-76" y="4" type="line"/>
      <point x="680" y="859" type="line"/>
      <point x="432" y="1496" type="line"/>
      <point x="933" y="1496" type="line" smooth="yes"/>
      <point x="1167" y="1496"/>
      <point x="1257" y="1304"/>
      <point x="1208" y="1090" type="curve"/>
      <point x="1212" y="1090" type="line"/>
      <point x="1306" y="1500" type="line"/>
      <point x="222" y="1500" type="line"/>
      <point x="222" y="1496" type="line"/>
      <point x="542" y="711" type="line"/>
    </contour>
  </outline>
</glyph>
<glyph name="uniF8E8" format="2">
  <advance width="1279"/>
  <unicode hex="F8E8"/>
  <anchor x="787.36" y="857.6" name="bottom"/>
  <anchor x="628.96" y="857.6" name="cedilla"/>
  <anchor x="837.76" y="1397.6" name="top"/>
  <outline>
    <contour>
      <point x="742" y="668" type="curve" smooth="yes"/>
      <point x="1021.6" y="668"/>
      <point x="1288" y="934.4"/>
      <point x="1288" y="1214" type="curve" smooth="yes"/>
      <point x="1288" y="1445.6"/>
      <point x="1117.6" y="1592"/>
      <point x="886" y="1592" type="curve" smooth="yes"/>
      <point x="606.4" y="1592"/>
      <point x="340" y="1325.6"/>
      <point x="340" y="1046" type="curve" smooth="yes"/>
      <point x="340" y="814.4"/>
      <point x="510.4" y="668"/>
    </contour>
    <contour>
      <point x="518.8" y="857.6" type="line"/>
      <point x="738.4" y="857.6" type="line"/>
      <point x="738.4" y="858.8" type="line"/>
      <point x="518.8" y="858.8" type="line"/>
    </contour>
    <contour>
      <point x="590.8" y="857.6" type="line"/>
      <point x="659.2" y="857.6" type="line"/>
      <point x="785.2" y="1397.6" type="line"/>
      <point x="716.8" y="1397.6" type="line"/>
    </contour>
    <contour>
      <point x="950.8" y="854" type="curve" smooth="yes"/>
      <point x="976.6" y="854"/>
      <point x="989.8" y="856.4"/>
      <point x="1015.6" y="866" type="curve"/>
      <point x="1015" y="867.8" type="line"/>
      <point x="1004.2" y="863.6"/>
      <point x="994" y="860"/>
      <point x="979" y="860" type="curve" smooth="yes"/>
      <point x="890.2" y="860"/>
      <point x="1046.8" y="1135.4"/>
      <point x="799.6" y="1135.4" type="curve" smooth="yes"/>
      <point x="702.4" y="1135.4" type="line"/>
      <point x="702.4" y="1134.2" type="line"/>
      <point x="785.2" y="1134.2" type="line" smooth="yes"/>
      <point x="962.2" y="1134.2"/>
      <point x="782.8" y="854"/>
    </contour>
    <contour>
      <point x="742" y="670.4" type="curve" smooth="yes"/>
      <point x="511.6" y="670.4"/>
      <point x="342.4" y="815.6"/>
      <point x="342.4" y="1046" type="curve" smooth="yes"/>
      <point x="342.4" y="1324.4"/>
      <point x="608.8" y="1589.6"/>
      <point x="886" y="1589.6" type="curve" smooth="yes"/>
      <point x="1116.4" y="1589.6"/>
      <point x="1285.6" y="1444.4"/>
      <point x="1285.6" y="1214" type="curve" smooth="yes"/>
      <point x="1285.6" y="935.6"/>
      <point x="1019.2" y="670.4"/>
    </contour>
    <contour>
      <point x="702.4" y="1134.2" type="line"/>
      <point x="806.8" y="1134.2" type="line" smooth="yes"/>
      <point x="951.4" y="1134.2"/>
      <point x="1033.6" y="1188.8"/>
      <point x="1033.6" y="1289.6" type="curve" smooth="yes"/>
      <point x="1033.6" y="1368.8"/>
      <point x="973" y="1397.6"/>
      <point x="878.8" y="1397.6" type="curve" smooth="yes"/>
      <point x="637.6" y="1397.6" type="line"/>
      <point x="637.6" y="1396.4" type="line"/>
      <point x="878.8" y="1396.4" type="line" smooth="yes"/>
      <point x="947.8" y="1396.4"/>
      <point x="954.4" y="1332.2"/>
      <point x="954.4" y="1296.8" type="curve" smooth="yes"/>
      <point x="954.4" y="1225.4"/>
      <point x="904.6" y="1135.4"/>
      <point x="806.8" y="1135.4" type="curve" smooth="yes"/>
      <point x="702.4" y="1135.4" type="line"/>
    </contour>
  </outline>
</glyph>
<glyph name="k.sc" format="2">
  <advance width="1205"/>
  <anchor x="417" y="0" name="bottom"/>
  <anchor x="97" y="0" name="cedilla"/>
  <anchor x="680" y="1020" name="top"/>
  <outline>
    <contour>
      <point x="-125" y="0" type="line"/>
      <point x="345" y="0" type="line"/>
      <point x="346" y="4" type="line"/>
      <point x="197" y="4" type="line"/>
      <point x="294" y="426" type="line"/>
      <point x="457" y="565" type="line"/>
      <point x="648" y="4" type="line"/>
      <point x="476" y="4" type="line"/>
      <point x="475" y="0" type="line"/>
      <point x="975" y="0" type="line"/>
      <point x="976" y="4" type="line"/>
      <point x="887" y="4" type="line"/>
      <point x="623" y="706" type="line"/>
      <point x="987" y="1016" type="line"/>
      <point x="1171" y="1016" type="line"/>
      <point x="1171" y="1020" type="line"/>
      <point x="790" y="1020" type="line"/>
      <point x="790" y="1016" type="line"/>
      <point x="982" y="1016" type="line"/>
      <point x="295" y="432" type="line"/>
      <point x="430" y="1016" type="line"/>
      <point x="580" y="1016" type="line"/>
      <point x="580" y="1020" type="line"/>
      <point x="110" y="1020" type="line"/>
      <point x="110" y="1016" type="line"/>
      <point x="240" y="1016" type="line"/>
      <point x="7" y="4" type="line"/>
      <point x="-124" y="4" type="line"/>
    </contour>
  </outline>
</glyph>
<glyph name="m.sc" format="2">
  <advance width="1483"/>
  <anchor x="475" y="0" name="bottom"/>
  <anchor x="710" y="1020" name="top"/>
  <outline>
    <contour>
      <point x="428" y="-20" type="line"/>
      <point x="489" y="-20" type="line"/>
      <point x="1144" y="1020" type="line"/>
      <point x="1141" y="1020" type="line"/>
      <point x="589" y="144" type="line"/>
      <point x="404" y="1020" type="line"/>
      <point x="211" y="1020" type="line"/>
    </contour>
    <contour>
      <point x="-115" y="0" type="line"/>
      <point x="69" y="0" type="line"/>
      <point x="70" y="4" type="line"/>
      <point x="-114" y="4" type="line"/>
    </contour>
    <contour>
      <point x="-25" y="0" type="line"/>
      <point x="-21" y="0" type="line"/>
      <point x="214" y="1020" type="line"/>
      <point x="110" y="1020" type="line"/>
      <point x="110" y="1016" type="line"/>
      <point x="210" y="1016" type="line"/>
    </contour>
    <contour>
      <point x="798" y="0" type="line"/>
      <point x="1188" y="0" type="line"/>
      <point x="1189" y="4" type="line"/>
      <point x="799" y="4" type="line"/>
    </contour>
    <contour>
      <point x="908" y="0" type="line"/>
      <point x="1098" y="0" type="line"/>
      <point x="1333" y="1016" type="line"/>
      <point x="1423" y="1016" type="line"/>
      <point x="1423" y="1020" type="line"/>
      <point x="1143" y="1020" type="line"/>
    </contour>
  </outline>
</glyph>
<glyph name="q.sc" format="2">
  <advance width="1279"/>
  <anchor x="664" y="1020" name="top"/>
  <outline>
    <contour>
      <point x="424" y="-20" type="curve" smooth="yes"/>
      <point x="730" y="-20"/>
      <point x="1012" y="184"/>
      <point x="1087" y="510" type="curve" smooth="yes"/>
      <point x="1162" y="836"/>
      <point x="956" y="1040"/>
      <point x="669" y="1040" type="curve" smooth="yes"/>
      <point x="382" y="1040"/>
      <point x="83" y="836"/>
      <point x="8" y="510" type="curve" smooth="yes"/>
      <point x="-67" y="184"/>
      <point x="118" y="-20"/>
    </contour>
    <contour>
      <point x="641" y="-500" type="curve"/>
      <point x="641" y="-496" type="line"/>
      <point x="453" y="-496"/>
      <point x="443" y="-363"/>
      <point x="527" y="0" type="curve"/>
      <point x="468" y="-24"/>
      <point x="392" y="-24"/>
      <point x="296" y="0" type="curve"/>
      <point x="216" y="-346"/>
      <point x="215" y="-500"/>
    </contour>
    <contour>
      <point x="425" y="-16" type="curve" smooth="yes"/>
      <point x="207" y="-16"/>
      <point x="176" y="247"/>
      <point x="237" y="510" type="curve" smooth="yes"/>
      <point x="298" y="773"/>
      <point x="470" y="1036"/>
      <point x="668" y="1036" type="curve" smooth="yes"/>
      <point x="866" y="1036"/>
      <point x="919" y="773"/>
      <point x="858" y="510" type="curve" smooth="yes"/>
      <point x="797" y="247"/>
      <point x="643" y="-16"/>
    </contour>
  </outline>
</glyph>
<glyph name="s.sc" format="2">
  <advance width="1012"/>
  <anchor x="313" y="-20" name="bottom"/>
  <anchor x="584" y="1020" name="top"/>
  <outline>
    <contour>
      <point x="346" y="-29" type="curve" smooth="yes"/>
      <point x="548" y="-29"/>
      <point x="721" y="80"/>
      <point x="769" y="290" type="curve" smooth="yes"/>
      <point x="854" y="660"/>
      <point x="259" y="610"/>
      <point x="314" y="850" type="curve" smooth="yes"/>
      <point x="335" y="939"/>
      <point x="412" y="1028"/>
      <point x="543" y="1028" type="curve" smooth="yes"/>
      <point x="711" y="1028"/>
      <point x="817" y="892"/>
      <point x="819" y="729" type="curve"/>
      <point x="823" y="729" type="line"/>
      <point x="822" y="897"/>
      <point x="713" y="1040"/>
      <point x="527" y="1040" type="curve" smooth="yes"/>
      <point x="341" y="1040"/>
      <point x="189" y="941"/>
      <point x="150" y="770" type="curve" smooth="yes"/>
      <point x="65" y="400"/>
      <point x="669" y="480"/>
      <point x="604" y="200" type="curve" smooth="yes"/>
      <point x="579" y="91"/>
      <point x="481" y="-19"/>
      <point x="319" y="-19" type="curve" smooth="yes"/>
      <point x="116" y="-19"/>
      <point x="10" y="180"/>
      <point x="-2" y="321" type="curve"/>
      <point x="-6" y="321" type="line"/>
      <point x="10" y="181"/>
      <point x="99" y="-29"/>
    </contour>
    <contour>
      <point x="-85" y="-20" type="line"/>
      <point x="-81" y="-20" type="line"/>
      <point x="74" y="111" type="line"/>
      <point x="28" y="181"/>
      <point x="15" y="215"/>
      <point x="-6" y="321" type="curve"/>
    </contour>
    <contour>
      <point x="823" y="729" type="curve"/>
      <point x="895" y="1040" type="line"/>
      <point x="891" y="1040" type="line"/>
      <point x="754" y="931" type="line"/>
      <point x="798" y="872"/>
      <point x="812" y="831"/>
    </contour>
  </outline>
</glyph>
<glyph name="w.sc" format="2">
  <advance width="1546"/>
  <anchor x="628" y="0" name="bottom"/>
  <anchor x="833" y="1020" name="top"/>
  <outline>
    <contour>
      <point x="860" y="-20" type="line"/>
      <point x="865" y="-20" type="line"/>
      <point x="1451" y="1020" type="line"/>
      <point x="1448" y="1020" type="line"/>
      <point x="1033" y="286" type="line"/>
      <point x="918" y="1020" type="line"/>
      <point x="717" y="1020" type="line"/>
    </contour>
    <contour>
      <point x="291" y="-20" type="line"/>
      <point x="296" y="-20" type="line"/>
      <point x="780" y="836" type="line"/>
      <point x="776" y="836" type="line"/>
      <point x="464" y="286" type="line"/>
      <point x="353" y="1020" type="line"/>
      <point x="154" y="1020" type="line"/>
    </contour>
    <contour>
      <point x="25" y="1016" type="line"/>
      <point x="1158" y="1016" type="line"/>
      <point x="1158" y="1020" type="line"/>
      <point x="25" y="1020" type="line"/>
    </contour>
    <contour>
      <point x="1318" y="1016" type="line"/>
      <point x="1571" y="1016" type="line"/>
      <point x="1571" y="1020" type="line"/>
      <point x="1318" y="1020" type="line"/>
    </contour>
  </outline>
</glyph>
